<svg version="1.1" id="Layer_1" xmlns="http://www.w3.org/2000/svg" xmlns:xlink="http://www.w3.org/1999/xlink" x="0px" y="0px"
	 width="100%" viewBox="0 0 1563 1563" enable-background="new 0 0 1563 1563" xml:space="preserve">
<path fill="#000000" opacity="1.000000" stroke="none" 
	d="
M844.000000,1564.000000 
	C562.666687,1564.000000 281.833435,1564.000000 1.000113,1564.000000 
	C1.000075,1043.000122 1.000075,522.000305 1.000038,1.000323 
	C521.999756,1.000215 1042.999512,1.000215 1563.999512,1.000108 
	C1563.999634,521.999695 1563.999634,1042.999390 1563.999756,1563.999512 
	C1324.166626,1564.000000 1084.333374,1564.000000 844.000000,1564.000000 
M947.946655,710.942871 
	C947.946655,710.942871 947.936279,710.977905 947.256592,711.013184 
	C946.808960,711.656250 946.361328,712.299255 945.278564,713.009888 
	C944.855286,713.050598 944.431946,713.091309 943.549194,712.943787 
	C943.549194,712.943787 943.060486,712.856384 942.992249,711.939880 
	C942.987854,707.301270 942.990662,702.662659 942.976746,698.024048 
	C942.966309,694.567017 941.100098,692.681946 938.368774,690.519897 
	C934.866272,687.747559 932.760986,690.118652 929.955017,690.932434 
	C923.332642,692.852966 916.354553,693.827942 910.033752,696.431763 
	C903.075317,699.298279 896.691406,703.559143 889.994446,706.250366 
	C889.994385,690.144836 889.841431,674.036865 890.092468,657.935242 
	C890.162781,653.426514 889.034058,651.807739 884.283081,651.926025 
	C871.506226,652.244263 858.716614,652.029114 845.932129,652.067932 
	C840.652893,652.083923 834.961060,650.696289 831.013123,655.157593 
	C831.013123,634.899292 831.013123,614.640991 831.013123,594.135254 
	C827.609436,594.135254 824.511841,593.545593 821.741943,594.248047 
	C814.040527,596.201172 806.557495,599.035950 798.834412,600.877441 
	C790.151306,602.947876 781.299500,604.310547 772.523438,605.993103 
	C772.049622,606.083862 771.598328,606.289246 771.134216,606.433716 
	C766.246521,607.955566 761.441528,609.926453 756.443054,610.848206 
	C752.700195,611.538330 750.854187,612.587769 750.923096,616.719910 
	C751.117126,628.366394 751.031677,640.018372 750.940430,651.667297 
	C750.930420,652.939880 750.166260,654.206604 749.234924,655.050415 
	C748.017212,653.072510 746.811523,651.815735 743.923523,651.865479 
	C728.931702,652.123535 713.932861,651.950928 698.936768,652.001709 
	C694.692261,652.016113 692.199097,654.671448 692.084839,658.548889 
	C691.814941,667.700439 692.093262,676.868225 692.036499,686.495544 
	C692.036499,686.495544 692.170227,686.956116 692.045898,687.634949 
	C692.090210,688.090820 692.134583,688.546631 692.023682,689.927002 
	C692.011658,708.053833 691.976379,726.180725 692.003662,744.307495 
	C692.010559,748.915833 694.958984,751.830444 699.539001,751.840210 
	C712.512024,751.867859 725.485413,751.889099 738.458069,751.811646 
	C743.163025,751.783447 747.378540,750.206177 751.032898,747.768982 
	C753.228149,749.654297 754.785461,752.088989 758.450073,752.047791 
	C778.757996,751.819885 799.069275,751.901428 819.379395,751.854675 
	C823.566528,751.845032 828.092224,752.998413 831.991943,748.879089 
	C835.732849,752.336243 840.381348,751.616272 844.854248,751.650513 
	C858.233337,751.752930 871.612671,751.831299 885.020081,752.719238 
	C877.914490,756.686829 870.808960,760.654358 863.434509,764.772095 
	C864.125916,760.870300 864.585999,758.273865 865.111511,755.308167 
	C862.149475,755.308167 860.195374,755.308167 857.159058,755.143127 
	C805.021057,755.097778 752.882996,755.057678 700.744995,754.998047 
	C696.062378,754.992676 690.744690,756.475586 688.506531,750.151123 
	C688.427307,749.927185 687.572083,749.977844 687.003418,749.262329 
	C686.947449,748.839417 686.891479,748.416504 686.985657,747.163940 
	C685.690552,743.434692 684.395386,739.705383 682.721619,735.221497 
	C682.749084,732.801392 682.776611,730.381287 683.063965,728.542786 
	C684.861328,729.639832 686.658691,730.736938 688.455994,731.834045 
	C688.906250,729.922913 689.432434,728.025024 689.769165,726.094116 
	C689.902527,725.329590 689.614441,724.491516 689.679626,722.803040 
	C689.751099,709.147095 689.837280,695.491150 689.885681,681.835144 
	C689.901367,677.414062 687.862366,675.858398 684.075378,677.238770 
	C680.247131,678.634338 676.398315,679.973694 671.920593,681.188477 
	C670.683960,682.032654 669.447327,682.876892 667.461182,683.856812 
	C666.743774,683.165222 665.653503,682.600037 665.369263,681.761597 
	C663.485413,676.205811 661.796448,670.584229 659.994751,665.000061 
	C659.413696,663.198975 658.429932,661.496460 658.063782,659.662354 
	C655.835144,648.498291 648.102661,641.996582 636.735596,641.972351 
	C622.578857,641.942200 608.421265,641.869873 594.265503,641.988647 
	C581.875427,642.092590 581.876343,642.198242 582.009583,654.554199 
	C582.091797,662.180115 589.743408,670.458740 597.169495,671.016479 
	C598.095398,671.085938 599.027527,671.373108 599.907104,671.695129 
	C601.868896,672.413269 603.783630,673.832031 605.744995,673.881592 
	C615.027832,674.116150 624.319885,673.986328 633.428345,673.986328 
	C634.745300,678.203125 635.414978,682.270996 637.272461,685.694458 
	C638.795898,688.502258 640.518982,695.383667 638.194031,698.016724 
	C635.605103,701.541382 631.101196,702.823547 627.805359,705.222046 
	C624.411377,707.692017 621.222473,711.717224 616.554932,712.767517 
	C615.601013,712.982117 614.649231,713.618896 613.906555,714.292664 
	C608.927734,718.808533 603.782288,723.171082 599.117554,727.995972 
	C592.111938,735.242065 585.432678,742.805176 578.675598,750.288574 
	C577.607361,751.471680 576.834045,752.927734 575.968018,754.285400 
	C573.277771,758.502869 570.608582,762.733704 567.197327,767.050293 
	C562.728821,770.872681 562.277466,774.063660 565.949951,776.811279 
	C563.010559,780.423889 558.343872,781.482666 555.118896,785.435791 
	C551.162292,790.285767 547.907715,794.568665 547.304443,801.272034 
	C546.905212,803.313843 545.749268,805.570923 546.256653,807.354797 
	C547.497314,811.716309 548.771301,816.406677 551.403809,819.943481 
	C554.319275,823.860474 558.334778,827.440979 562.636047,829.731812 
	C569.141785,833.196533 576.637573,831.983887 583.784485,831.881775 
	C584.818665,831.867004 586.048767,831.554321 586.840515,830.934937 
	C590.920776,827.743164 594.893921,824.413818 598.892334,821.117798 
	C602.259155,818.342407 604.041077,814.833557 603.972107,810.394897 
	C603.904846,806.068115 604.366394,801.690918 603.848999,797.426453 
	C603.416809,793.863770 603.282898,789.720520 598.992310,787.097168 
	C598.870789,786.132080 599.074585,784.558472 598.578796,784.293274 
	C591.381042,780.444824 585.285767,773.498535 575.763245,775.927856 
	C574.666443,776.207703 573.441956,775.987244 572.061707,775.154907 
	C574.656006,774.770203 577.272705,773.963318 579.839294,774.099731 
	C583.698242,774.304871 585.556396,773.091858 585.805298,768.971436 
	C586.415833,767.976440 586.932190,766.906921 587.651794,765.998352 
	C593.138611,759.070618 598.396057,751.934631 604.266846,745.346313 
	C608.725159,740.343140 613.761963,735.785461 618.941650,731.515015 
	C624.023743,727.325134 629.551758,723.661316 634.998230,719.933350 
	C638.540527,717.508606 642.287170,715.382263 646.038025,713.870422 
	C647.676270,717.640808 649.557312,721.327393 650.894836,725.201538 
	C652.822083,730.783691 654.336731,736.507507 656.063354,742.159912 
	C656.884216,744.847412 657.677429,747.551880 658.681274,750.172791 
	C660.078918,753.821899 661.662354,757.399841 663.009583,761.690002 
	C663.330688,762.480713 663.651794,763.271362 664.118652,764.805237 
	C665.045410,766.849792 665.972168,768.894348 667.370056,771.594727 
	C668.210266,774.334167 668.995789,777.091919 669.905640,779.808044 
	C670.877380,782.708923 672.078979,785.535645 672.981018,788.456299 
	C674.916138,794.721924 676.712952,801.030090 678.589966,807.313843 
	C679.027039,808.776794 679.775085,810.178406 680.002625,811.666016 
	C680.522339,815.062561 684.384399,817.638550 687.747925,816.930603 
	C691.524414,816.135681 695.365906,815.649414 698.864014,815.739258 
	C697.642944,816.484009 696.474243,817.761108 695.192322,817.887207 
	C686.727417,818.719788 678.242310,819.364197 669.755249,819.946472 
	C665.284973,820.253174 660.110046,818.975586 656.500427,820.834656 
	C652.435913,822.928040 648.701172,822.882629 644.692932,822.957825 
	C638.698303,823.070374 632.699829,822.997559 626.703186,822.972717 
	C625.547791,822.967896 623.932068,823.283630 623.311523,822.665649 
	C618.804932,818.176636 613.215027,820.590942 608.115723,820.103943 
	C607.215393,820.018005 605.832397,820.727722 605.319702,821.499817 
	C600.147766,829.288513 592.913269,833.571228 583.763306,835.174500 
	C582.349060,835.422241 581.092041,837.632263 580.239746,839.195129 
	C580.051514,839.540283 581.726318,841.435913 582.829834,841.845703 
	C585.564819,842.861145 588.837158,842.826843 591.226074,844.298157 
	C597.092651,847.910828 603.364197,849.000732 610.050293,849.008423 
	C613.321472,849.012207 617.126831,848.380371 619.749939,849.788452 
	C624.936035,852.572083 630.140808,852.114624 635.416016,851.659729 
	C643.181763,850.989990 650.892334,849.628296 658.663025,849.084717 
	C664.962769,848.643921 671.747742,850.374878 677.532715,848.593628 
	C684.179749,846.547119 690.471069,847.422913 696.958496,848.039062 
	C695.304993,852.532837 693.478516,856.975647 692.126526,861.558411 
	C691.810913,862.628235 693.074341,864.187622 693.671448,865.494263 
	C694.049194,866.320801 694.856445,867.068604 694.929382,867.899170 
	C695.845642,878.336975 703.824341,882.959961 711.406860,887.806274 
	C712.486084,888.496033 714.343323,887.958191 715.839783,888.008972 
	C716.998352,888.048218 718.486450,887.673096 719.261292,888.247131 
	C725.298218,892.718872 730.541687,887.761169 735.931763,886.654846 
	C739.171753,885.989929 742.398499,883.390381 744.776672,880.857727 
	C747.940857,877.487854 751.741821,873.649353 752.635254,869.451599 
	C754.160828,862.283813 755.692078,854.520325 750.611450,847.230774 
	C777.797241,847.230774 804.348328,847.230774 831.500488,847.230774 
	C827.983582,857.221313 828.321106,866.001465 833.612244,875.516479 
	C839.043091,885.282654 847.810181,888.930420 856.739075,889.875488 
	C871.320923,891.419006 881.810425,883.162476 888.956421,870.511536 
	C890.632324,867.544434 890.128174,852.284302 887.070740,846.974060 
	C890.926392,846.974060 894.565430,846.970459 898.204407,846.975464 
	C900.132996,846.978149 902.147156,847.370422 902.428894,844.406555 
	C902.815430,840.340698 903.767822,836.311646 903.927429,832.245178 
	C904.168213,826.109375 902.989136,825.032654 896.795532,825.033386 
	C861.872131,825.037354 826.948792,825.087219 792.060486,824.260193 
	C793.137268,823.511902 794.117737,822.502563 795.308533,822.063171 
	C799.183716,820.633240 803.135803,819.411682 807.783508,817.964050 
	C808.519897,817.922729 809.256226,817.881409 810.690369,817.970520 
	C811.819519,816.994568 812.948669,816.018616 814.937378,815.009766 
	C817.034485,814.479370 819.104858,813.697388 821.234314,813.470703 
	C825.728333,812.992310 828.936646,807.881287 833.850952,810.658325 
	C832.923706,812.449280 831.996460,814.240234 831.069214,816.031189 
	C832.952271,816.676636 834.831787,817.871399 836.718872,817.883362 
	C857.713684,818.016052 878.713318,817.750732 899.702820,818.110962 
	C905.180115,818.204895 909.024109,815.416504 912.921509,812.814758 
	C915.502136,811.091980 917.583374,807.975952 918.829163,805.035095 
	C921.317383,799.161377 923.132812,792.997131 925.109253,786.914917 
	C925.837952,784.672424 925.703125,781.989197 926.891235,780.087402 
	C929.965942,775.165833 931.747498,770.135986 930.723389,764.238831 
	C928.399231,764.238831 926.267090,764.238831 924.002686,763.346497 
	C924.550903,762.882263 925.055176,762.349731 925.654297,761.964722 
	C930.119385,759.095215 935.679810,757.610474 938.890137,752.020203 
	C940.049255,751.976013 941.524902,752.374817 942.313293,751.811707 
	C945.952698,749.211609 949.524597,746.485413 952.890930,743.541626 
	C959.233276,737.995361 965.294678,732.124695 971.698853,726.653320 
	C979.695190,719.821777 986.355652,711.806396 992.252930,703.232239 
	C996.646118,696.844849 1000.182617,689.854614 1003.877441,683.012329 
	C1004.597290,681.679321 1003.763062,679.460999 1004.544861,678.215393 
	C1008.317444,672.205078 1007.757385,665.294617 1008.797180,658.758057 
	C1009.109863,656.792480 1007.717712,654.519226 1006.981201,652.431091 
	C1005.619263,648.569580 1004.849365,644.268066 1002.595825,641.003967 
	C998.772583,635.466370 994.979004,629.800537 987.652710,627.567566 
	C983.130127,626.189087 979.340271,622.570129 974.972473,620.476257 
	C970.244812,618.209961 968.197998,619.993530 967.889709,625.366577 
	C967.725708,628.224182 966.676392,631.031006 965.196716,633.587708 
	C964.348145,626.517517 966.463318,619.125732 962.959717,612.348389 
	C960.392273,607.381897 957.762756,602.493591 951.658752,600.950256 
	C948.743958,600.213257 945.043152,599.956726 943.239441,598.035583 
	C940.088501,594.679626 936.787781,596.241821 933.570679,596.369690 
	C932.248596,596.422241 930.955872,598.882690 929.707153,598.832153 
	C923.384094,598.576172 918.885071,601.955872 915.471008,606.381470 
	C912.439026,610.311584 908.405884,614.172302 909.020874,620.636353 
	C908.597107,621.309326 908.173340,621.982239 906.863403,622.508423 
	C905.835083,618.405273 902.853516,617.394531 899.205261,618.062439 
	C896.047241,618.640564 892.918701,619.522827 889.876282,620.561279 
	C882.889954,622.945801 876.090027,625.999390 868.969055,627.823181 
	C864.262390,629.028564 862.343689,631.475281 863.126099,635.696655 
	C863.822205,639.452087 865.832458,642.717651 870.682617,641.963867 
	C875.352844,641.238037 880.611755,641.587280 884.548218,639.478516 
	C890.683533,636.191711 897.352600,636.601074 904.476929,634.123657 
	C904.915710,631.392822 905.385254,627.960754 906.076599,624.573914 
	C906.224609,623.848938 907.176025,623.287964 907.081787,623.369202 
	C906.762756,630.636597 909.001770,636.542297 913.461304,642.719666 
	C919.013855,650.411072 925.150879,654.491028 934.485168,654.002136 
	C937.304688,653.854553 940.142212,654.070251 942.964783,653.955627 
	C950.741272,653.639893 956.208618,649.712952 960.198120,642.306213 
	C961.127747,641.126465 962.000854,639.895142 963.009827,638.787659 
	C963.550354,638.194336 964.324829,637.814087 964.940552,638.066956 
	C965.770508,638.706299 966.506897,639.627869 967.445679,639.939087 
	C973.382080,641.907288 980.235352,650.926514 980.168030,657.423218 
	C980.092102,664.758362 977.557190,671.012939 974.040344,677.012634 
	C969.891235,684.091003 965.334595,690.930603 960.238098,698.002136 
	C956.486755,701.660461 952.735413,705.318726 948.415588,709.198853 
	C948.271301,709.778198 948.127014,710.357605 947.946655,710.942871 
z"/>
<path fill="#78A2DD" opacity="1.000000" stroke="none" 
	d="
M687.078491,749.900513 
	C687.572083,749.977844 688.427307,749.927185 688.506531,750.151123 
	C690.744690,756.475586 696.062378,754.992676 700.744995,754.998047 
	C752.882996,755.057678 805.021057,755.097778 857.607727,755.490845 
	C862.545227,757.969727 863.084106,762.394409 858.633728,764.722839 
	C850.197815,769.136475 841.441528,772.940918 832.791504,776.940430 
	C829.538574,778.444397 826.210999,779.787048 822.522949,781.111694 
	C818.398804,782.646118 813.465698,781.499634 810.545776,785.909424 
	C806.109497,787.037903 801.029846,786.995850 798.249146,789.503174 
	C794.065552,793.275574 789.223816,792.591492 784.781372,794.141846 
	C783.682678,794.525391 782.957458,795.979004 781.659790,796.969604 
	C779.260498,797.456238 777.261963,797.914001 774.820557,798.218567 
	C768.828613,799.282288 763.275513,800.481567 757.739990,801.757568 
	C757.389587,801.838318 757.176819,802.516113 756.693115,802.967651 
	C756.486206,803.019104 756.085938,803.166565 755.654236,803.078125 
	C751.551147,803.639709 747.820068,804.065613 744.230286,805.022034 
	C742.005188,805.614929 739.994568,807.012878 737.715088,808.067871 
	C737.542603,808.086304 737.200317,808.142761 736.741943,808.035339 
	C730.076660,808.613403 723.852173,809.181458 717.680054,810.101318 
	C716.665222,810.252563 715.880676,811.948792 714.756226,813.121948 
	C709.408264,813.884827 704.293640,814.456909 699.179077,815.028931 
	C695.365906,815.649414 691.524414,816.135681 687.747925,816.930603 
	C684.384399,817.638550 680.522339,815.062561 680.002625,811.666016 
	C679.775085,810.178406 679.027039,808.776794 678.589966,807.313843 
	C676.712952,801.030090 674.916138,794.721924 672.981018,788.456299 
	C672.078979,785.535645 670.877380,782.708923 669.905640,779.808044 
	C668.995789,777.091919 668.210266,774.334167 667.393433,771.074341 
	C667.813599,769.290100 668.728455,767.931946 668.518555,766.778625 
	C667.541931,761.414856 666.254028,756.107727 664.748840,749.292053 
	C667.971619,750.944397 669.648438,751.841675 671.357361,752.673035 
	C675.969910,754.916748 678.094177,754.078430 680.071350,749.290649 
	C680.318176,748.692932 680.463501,747.866699 680.926514,747.573242 
	C686.648865,743.947144 682.545105,742.908020 678.811340,741.739685 
	C680.418823,739.579468 681.759521,737.777832 683.100220,735.976135 
	C684.395386,739.705383 685.690552,743.434692 686.580811,747.667603 
	C685.822571,749.760010 685.258606,751.341370 685.203430,752.940369 
	C685.175354,753.755310 686.513245,754.633362 686.457886,755.428955 
	C686.165955,759.626648 688.934143,759.950989 691.937195,760.000427 
	C694.751892,760.046875 697.576660,760.097229 700.379944,759.901794 
	C701.408936,759.830078 702.389099,759.058777 703.391602,758.606567 
	C703.282043,758.069031 703.172485,757.531433 703.062927,756.993896 
	C701.012817,756.993896 698.933655,757.208618 696.920410,756.936035 
	C694.722717,756.638428 692.230103,756.393982 690.526306,755.191101 
	C688.928406,754.062927 688.193237,751.712891 687.078491,749.900513 
z"/>
<path fill="#78A2DD" opacity="1.000000" stroke="none" 
	d="
M792.025391,825.121460 
	C826.948792,825.087219 861.872131,825.037354 896.795532,825.033386 
	C902.989136,825.032654 904.168213,826.109375 903.927429,832.245178 
	C903.767822,836.311646 902.815430,840.340698 902.428894,844.406555 
	C902.147156,847.370422 900.132996,846.978149 898.204407,846.975464 
	C894.565430,846.970459 890.926392,846.974060 887.070740,846.974060 
	C890.128174,852.284302 890.632324,867.544434 888.956421,870.511536 
	C881.810425,883.162476 871.320923,891.419006 856.739075,889.875488 
	C847.810181,888.930420 839.043091,885.282654 833.612244,875.516479 
	C828.321106,866.001465 827.983582,857.221313 831.500488,847.230774 
	C804.348328,847.230774 777.797241,847.230774 750.611450,847.230774 
	C755.692078,854.520325 754.160828,862.283813 752.635254,869.451599 
	C751.741821,873.649353 747.940857,877.487854 744.776672,880.857727 
	C742.398499,883.390381 739.171753,885.989929 735.931763,886.654846 
	C730.541687,887.761169 725.298218,892.718872 719.261292,888.247131 
	C718.486450,887.673096 716.998352,888.048218 715.839783,888.008972 
	C714.343323,887.958191 712.486084,888.496033 711.406860,887.806274 
	C703.824341,882.959961 695.845642,878.336975 694.929382,867.899170 
	C694.856445,867.068604 694.049194,866.320801 693.671448,865.494263 
	C693.074341,864.187622 691.810913,862.628235 692.126526,861.558411 
	C693.478516,856.975647 695.304993,852.532837 697.234253,847.478271 
	C697.724304,846.862671 697.938538,846.807739 698.543335,846.867065 
	C704.365967,846.329590 709.811829,845.768188 715.218140,844.946838 
	C716.244751,844.790894 717.114807,843.604797 718.438599,842.755615 
	C726.043762,841.382141 733.278931,840.209656 740.487488,838.891663 
	C745.981201,837.887268 751.509827,836.958008 756.901184,835.534363 
	C766.588562,832.976257 776.184448,830.072144 786.263062,827.217285 
	C788.508484,826.418640 790.309448,825.715393 792.061707,825.018188 
	C792.013062,825.024170 792.025391,825.121460 792.025391,825.121460 
M725.822632,865.627319 
	C727.940002,863.057678 733.373657,862.088074 730.032349,856.886047 
	C726.203186,850.924622 724.564087,850.947144 718.697449,854.968079 
	C715.770081,856.974426 714.827942,859.700256 716.532410,861.545593 
	C718.572021,863.753845 722.155762,864.535767 725.822632,865.627319 
M852.979126,860.371399 
	C851.601379,865.557739 857.638733,863.069031 858.817810,865.779968 
	C858.886902,865.938843 861.819214,865.168274 863.169739,864.394836 
	C867.313171,862.021606 866.299744,858.411804 864.885864,855.026611 
	C863.508972,851.730164 860.319092,851.313293 857.530884,852.142212 
	C854.261902,853.114136 851.913208,855.423340 852.979126,860.371399 
z"/>
<path fill="#ABCB77" opacity="1.000000" stroke="none" 
	d="
M822.917419,781.203125 
	C826.210999,779.787048 829.538574,778.444397 832.791504,776.940430 
	C841.441528,772.940918 850.197815,769.136475 858.633728,764.722839 
	C863.084106,762.394409 862.545227,757.969727 858.148804,755.573364 
	C860.195374,755.308167 862.149475,755.308167 865.111511,755.308167 
	C864.585999,758.273865 864.125916,760.870300 863.434509,764.772095 
	C870.808960,760.654358 877.914490,756.686829 884.971497,752.346069 
	C884.922913,751.972961 884.929138,752.061584 885.350708,752.055420 
	C890.937378,751.955383 894.129272,748.762329 897.241760,744.864014 
	C900.785339,744.687561 902.561829,741.745178 905.719604,740.746277 
	C911.481873,738.923645 916.248657,733.898010 921.371277,730.127625 
	C924.955872,727.489197 928.441589,724.716248 932.259521,722.215820 
	C935.030945,721.951416 937.514221,721.474487 939.998779,720.998779 
	C940.000000,721.000000 940.002441,721.002441 939.935852,721.361267 
	C937.502197,726.811218 942.941406,725.338562 945.116089,727.597656 
	C940.916199,735.022522 936.682617,742.507019 932.378296,750.116455 
	C934.402588,750.826416 936.225647,751.465820 938.048706,752.105225 
	C935.679810,757.610474 930.119385,759.095215 925.654297,761.964722 
	C925.055176,762.349731 924.550903,762.882263 923.826904,763.917725 
	C919.520935,766.583862 915.282593,768.492859 911.286255,770.817810 
	C905.490356,774.189880 900.038940,778.179504 894.136780,781.338074 
	C883.275879,787.150391 872.199524,792.560852 861.196838,798.106750 
	C859.744751,798.838684 858.203003,799.395020 856.694275,800.011841 
	C850.498962,802.544739 844.300354,805.069580 837.677551,807.754333 
	C836.149109,808.621277 835.046143,809.331299 833.989441,810.047058 
	C834.035706,810.052856 834.091858,809.978455 834.091858,809.978455 
	C828.936646,807.881287 825.728333,812.992310 821.234314,813.470703 
	C819.104858,813.697388 817.034485,814.479370 814.136414,815.020142 
	C812.221191,815.967102 811.106934,816.903625 809.992615,817.840088 
	C809.256226,817.881409 808.519897,817.922729 807.091919,817.797974 
	C803.611084,817.529602 800.642822,816.755676 798.063965,817.442932 
	C787.632263,820.222961 777.361938,823.604370 766.949890,826.464478 
	C759.819580,828.423096 752.560242,829.917358 745.345886,831.563660 
	C738.659302,833.089539 731.955444,834.540344 725.260010,836.027527 
	C724.133972,836.277710 723.020325,836.593323 721.886230,836.796509 
	C714.004150,838.208252 706.160828,840.145447 698.215454,840.765076 
	C694.228943,841.075928 690.067627,838.917297 685.960632,837.984863 
	C682.958252,837.303223 679.317017,837.651428 679.044495,833.133606 
	C678.775330,828.670898 681.320923,825.291626 684.993774,824.315979 
	C693.567017,822.038574 702.384949,820.662476 711.127014,819.047363 
	C717.691162,817.834595 724.402710,817.255920 730.851318,815.617981 
	C742.424805,812.678345 753.876953,809.245239 765.324707,805.833496 
	C770.313538,804.346741 775.227600,802.550598 780.030945,800.547852 
	C781.034363,800.129456 781.400696,798.183044 782.060547,796.940735 
	C782.957458,795.979004 783.682678,794.525391 784.781372,794.141846 
	C789.223816,792.591492 794.065552,793.275574 798.249146,789.503174 
	C801.029846,786.995850 806.109497,787.037903 810.969727,785.994507 
	C816.080627,785.786987 820.273621,785.275024 822.917419,781.203125 
z"/>
<path fill="#F1BD4E" opacity="1.000000" stroke="none" 
	d="
M749.751953,655.476013 
	C750.166260,654.206604 750.930420,652.939880 750.940430,651.667297 
	C751.031677,640.018372 751.117126,628.366394 750.923096,616.719910 
	C750.854187,612.587769 752.700195,611.538330 756.443054,610.848206 
	C761.441528,609.926453 766.246521,607.955566 771.134216,606.433716 
	C771.598328,606.289246 772.049622,606.083862 772.523438,605.993103 
	C781.299500,604.310547 790.151306,602.947876 798.834412,600.877441 
	C806.557495,599.035950 814.040527,596.201172 821.741943,594.248047 
	C824.511841,593.545593 827.609436,594.135254 831.013123,594.135254 
	C831.013123,614.640991 831.013123,634.899292 831.094116,656.085571 
	C831.151550,670.654175 831.128052,684.294739 830.705566,697.976562 
	C817.805664,699.931458 806.881042,697.148071 797.881226,687.731995 
	C796.596069,686.387512 793.891052,686.074463 791.792175,685.901489 
	C787.477539,685.545837 783.121643,685.722351 778.795471,685.465393 
	C774.686584,685.221375 773.833679,682.557495 773.907532,678.872131 
	C773.961121,676.192749 773.187195,673.496826 772.782227,670.808289 
	C770.251587,674.379456 769.242493,678.932983 764.543396,677.761963 
	C761.333862,676.962097 758.651550,674.046448 755.383667,671.840637 
	C754.926575,676.951721 754.134277,682.015259 754.081970,687.086365 
	C753.905029,704.236572 754.027161,721.389709 753.926819,738.541016 
	C753.914856,740.586792 755.085876,743.581177 751.167664,743.425659 
	C750.658691,737.269592 749.950989,731.529602 749.857056,725.779663 
	C749.662170,713.851990 749.844971,701.918457 749.737122,689.988647 
	C749.719971,688.093689 748.998047,686.205017 748.675903,683.845337 
	C749.083923,674.076843 749.417969,664.776428 749.751953,655.476013 
M791.993713,642.382263 
	C791.993713,638.988831 791.993713,635.595337 791.993713,632.253906 
	C787.290588,632.253906 783.225281,632.253906 779.821716,632.253906 
	C779.628113,636.625793 779.448120,640.689758 779.257324,644.997559 
	C782.526062,644.997559 785.668091,645.138733 788.785217,644.921875 
	C789.896973,644.844604 790.948486,643.899719 791.993713,642.382263 
M780.749939,681.038330 
	C784.788696,681.038330 788.827454,681.038330 792.499390,681.038330 
	C792.217102,676.604858 791.983032,672.928711 791.742554,669.151306 
	C786.921509,669.151306 782.315674,669.151306 778.271545,669.151306 
	C778.793640,673.138245 779.302917,677.027222 780.749939,681.038330 
z"/>
<path fill="#EE517A" opacity="1.000000" stroke="none" 
	d="
M831.104553,697.935364 
	C831.128052,684.294739 831.151550,670.654175 831.156494,656.556885 
	C834.961060,650.696289 840.652893,652.083923 845.932129,652.067932 
	C858.716614,652.029114 871.506226,652.244263 884.283081,651.926025 
	C889.034058,651.807739 890.162781,653.426514 890.092468,657.935242 
	C889.841431,674.036865 889.994385,690.144836 890.054932,707.126709 
	C889.850891,709.609009 889.320312,711.222351 889.365112,712.819641 
	C889.652405,723.059448 890.065857,733.295776 890.236572,743.933350 
	C891.300842,748.870239 886.238281,749.225952 884.929138,752.061584 
	C884.929138,752.061584 884.922913,751.972961 884.957397,751.945984 
	C871.612671,751.831299 858.233337,751.752930 844.854248,751.650513 
	C840.381348,751.616272 835.732849,752.336243 831.585571,748.533936 
	C831.066650,747.080688 830.954102,745.972717 830.896729,744.581055 
	C830.917297,743.916016 830.882690,743.534546 830.937744,742.681824 
	C831.053162,727.452148 831.078857,712.693726 831.104553,697.935364 
z"/>
<path fill="#81B4E4" opacity="1.000000" stroke="none" 
	d="
M682.910889,735.598816 
	C681.759521,737.777832 680.418823,739.579468 678.811340,741.739685 
	C682.545105,742.908020 686.648865,743.947144 680.926514,747.573242 
	C680.463501,747.866699 680.318176,748.692932 680.071350,749.290649 
	C678.094177,754.078430 675.969910,754.916748 671.357361,752.673035 
	C669.648438,751.841675 667.971619,750.944397 664.748840,749.292053 
	C666.254028,756.107727 667.541931,761.414856 668.518555,766.778625 
	C668.728455,767.931946 667.813599,769.290100 667.157898,770.746399 
	C665.972168,768.894348 665.045410,766.849792 664.221191,764.231995 
	C663.937927,762.775269 663.552063,761.891724 663.166260,761.008240 
	C661.662354,757.399841 660.078918,753.821899 658.681274,750.172791 
	C657.677429,747.551880 656.884216,744.847412 656.063354,742.159912 
	C654.336731,736.507507 652.822083,730.783691 650.894836,725.201538 
	C649.557312,721.327393 647.676270,717.640808 645.873718,713.155151 
	C646.471191,706.872803 645.800110,702.009277 639.672241,699.652466 
	C639.264221,699.495483 639.182800,698.489380 638.949402,697.878235 
	C640.518982,695.383667 638.795898,688.502258 637.272461,685.694458 
	C635.414978,682.270996 634.745300,678.203125 633.428345,673.986328 
	C624.319885,673.986328 615.027832,674.116150 605.744995,673.881592 
	C603.783630,673.832031 601.868896,672.413269 599.907104,671.695129 
	C599.027527,671.373108 598.095398,671.085938 597.169495,671.016479 
	C589.743408,670.458740 582.091797,662.180115 582.009583,654.554199 
	C581.876343,642.198242 581.875427,642.092590 594.265503,641.988647 
	C608.421265,641.869873 622.578857,641.942200 636.735596,641.972351 
	C648.102661,641.996582 655.835144,648.498291 658.063782,659.662354 
	C658.429932,661.496460 659.413696,663.198975 659.994751,665.000061 
	C661.796448,670.584229 663.485413,676.205811 665.369263,681.761597 
	C665.653503,682.600037 666.743774,683.165222 667.862976,684.198486 
	C668.555115,685.981689 668.845520,687.423279 669.165771,689.260010 
	C671.086182,695.637939 672.976746,701.620667 674.901550,708.045776 
	C675.683777,711.916931 676.290344,715.387756 677.286804,718.742798 
	C677.513672,719.506531 679.089539,719.869629 680.144775,720.753784 
	C680.630798,722.195496 681.016602,723.300537 681.336365,724.709106 
	C681.781555,725.995544 682.292847,726.978394 682.804077,727.961182 
	C682.776611,730.381287 682.749084,732.801392 682.910889,735.598816 
z"/>
<path fill="#F1AD43" opacity="1.000000" stroke="none" 
	d="
M830.705566,697.976562 
	C831.078857,712.693726 831.053162,727.452148 830.712036,742.721375 
	C830.544983,743.776367 830.693298,744.320557 830.841614,744.864685 
	C830.954102,745.972717 831.066650,747.080688 831.157837,748.442017 
	C828.092224,752.998413 823.566528,751.845032 819.379395,751.854675 
	C799.069275,751.901428 778.757996,751.819885 758.450073,752.047791 
	C754.785461,752.088989 753.228149,749.654297 751.004517,746.997681 
	C751.066467,745.429993 751.156677,744.633606 751.246887,743.837158 
	C755.085876,743.581177 753.914856,740.586792 753.926819,738.541016 
	C754.027161,721.389709 753.905029,704.236572 754.081970,687.086365 
	C754.134277,682.015259 754.926575,676.951721 755.383667,671.840637 
	C758.651550,674.046448 761.333862,676.962097 764.543396,677.761963 
	C769.242493,678.932983 770.251587,674.379456 772.782227,670.808289 
	C773.187195,673.496826 773.961121,676.192749 773.907532,678.872131 
	C773.833679,682.557495 774.686584,685.221375 778.795471,685.465393 
	C783.121643,685.722351 787.477539,685.545837 791.792175,685.901489 
	C793.891052,686.074463 796.596069,686.387512 797.881226,687.731995 
	C806.881042,697.148071 817.805664,699.931458 830.705566,697.976562 
M774.500244,748.997559 
	C778.997070,748.999146 783.493835,749.000793 787.990662,749.002441 
	C792.487427,749.004028 796.984253,749.005981 801.481018,749.007263 
	C805.977844,749.008484 810.479187,749.135132 814.970093,748.972900 
	C819.126465,748.822815 823.474976,749.727966 828.793823,747.802246 
	C822.552002,745.191223 757.569641,745.577271 754.547546,748.997986 
	C760.865234,748.997986 767.182861,748.997986 774.500244,748.997559 
M788.286377,718.024475 
	C789.415771,717.949829 790.545166,717.875244 792.010498,717.778381 
	C792.231140,713.593262 792.441528,709.602051 792.671448,705.239441 
	C787.566467,705.239441 782.900696,705.239441 778.816650,705.239441 
	C779.396667,709.589050 779.936584,713.637939 780.521545,718.024414 
	C782.772339,718.024414 785.065063,718.024414 788.286377,718.024475 
z"/>
<path fill="#A1C270" opacity="1.000000" stroke="none" 
	d="
M938.469421,752.062744 
	C936.225647,751.465820 934.402588,750.826416 932.378296,750.116455 
	C936.682617,742.507019 940.916199,735.022522 945.116089,727.597656 
	C942.941406,725.338562 937.502197,726.811218 940.281250,721.286926 
	C945.687866,717.181641 950.643005,713.454041 955.689392,709.854431 
	C959.865906,706.875305 961.539124,702.895386 960.954651,697.873657 
	C965.334595,690.930603 969.891235,684.091003 974.040344,677.012634 
	C977.557190,671.012939 980.092102,664.758362 980.168030,657.423218 
	C980.235352,650.926514 973.382080,641.907288 967.445679,639.939087 
	C966.506897,639.627869 965.770508,638.706299 965.035889,637.339722 
	C965.429688,635.695312 965.728271,634.778015 966.026733,633.860718 
	C966.676392,631.031006 967.725708,628.224182 967.889709,625.366577 
	C968.197998,619.993530 970.244812,618.209961 974.972473,620.476257 
	C979.340271,622.570129 983.130127,626.189087 987.652710,627.567566 
	C994.979004,629.800537 998.772583,635.466370 1002.595825,641.003967 
	C1004.849365,644.268066 1005.619263,648.569580 1006.981201,652.431091 
	C1007.717712,654.519226 1009.109863,656.792480 1008.797180,658.758057 
	C1007.757385,665.294617 1008.317444,672.205078 1004.544861,678.215393 
	C1003.763062,679.460999 1004.597290,681.679321 1003.877441,683.012329 
	C1000.182617,689.854614 996.646118,696.844849 992.252930,703.232239 
	C986.355652,711.806396 979.695190,719.821777 971.698853,726.653320 
	C965.294678,732.124695 959.233276,737.995361 952.890930,743.541626 
	C949.524597,746.485413 945.952698,749.211609 942.313293,751.811707 
	C941.524902,752.374817 940.049255,751.976013 938.469421,752.062744 
z"/>
<path fill="#A1C270" opacity="1.000000" stroke="none" 
	d="
M781.659790,796.969604 
	C781.400696,798.183044 781.034363,800.129456 780.030945,800.547852 
	C775.227600,802.550598 770.313538,804.346741 765.324707,805.833496 
	C753.876953,809.245239 742.424805,812.678345 730.851318,815.617981 
	C724.402710,817.255920 717.691162,817.834595 711.127014,819.047363 
	C702.384949,820.662476 693.567017,822.038574 684.993774,824.315979 
	C681.320923,825.291626 678.775330,828.670898 679.044495,833.133606 
	C679.317017,837.651428 682.958252,837.303223 685.960632,837.984863 
	C690.067627,838.917297 694.228943,841.075928 698.215454,840.765076 
	C706.160828,840.145447 714.004150,838.208252 721.886230,836.796509 
	C723.020325,836.593323 724.133972,836.277710 725.260010,836.027527 
	C731.955444,834.540344 738.659302,833.089539 745.345886,831.563660 
	C752.560242,829.917358 759.819580,828.423096 766.949890,826.464478 
	C777.361938,823.604370 787.632263,820.222961 798.063965,817.442932 
	C800.642822,816.755676 803.611084,817.529602 806.729309,817.870911 
	C803.135803,819.411682 799.183716,820.633240 795.308533,822.063171 
	C794.117737,822.502563 793.137268,823.511902 792.042969,824.690796 
	C792.025391,825.121460 792.013062,825.024170 791.627625,825.031982 
	C789.609009,825.043884 787.962463,824.945068 786.355774,825.153503 
	C786.087891,825.188232 785.993286,826.559143 785.818604,827.312561 
	C776.184448,830.072144 766.588562,832.976257 756.901184,835.534363 
	C751.509827,836.958008 745.981201,837.887268 740.487488,838.891663 
	C733.278931,840.209656 726.043762,841.382141 718.239990,842.423462 
	C711.932861,842.828430 706.190979,843.322388 700.494568,844.135315 
	C699.607483,844.261902 698.928162,845.843872 698.152771,846.752869 
	C697.938538,846.807739 697.724304,846.862671 697.223267,847.083740 
	C690.471069,847.422913 684.179749,846.547119 677.532715,848.593628 
	C671.747742,850.374878 664.962769,848.643921 658.663025,849.084717 
	C650.892334,849.628296 643.181763,850.989990 635.416016,851.659729 
	C630.140808,852.114624 624.936035,852.572083 619.749939,849.788452 
	C617.126831,848.380371 613.321472,849.012207 610.050293,849.008423 
	C603.364197,849.000732 597.092651,847.910828 591.226074,844.298157 
	C588.837158,842.826843 585.564819,842.861145 582.829834,841.845703 
	C581.726318,841.435913 580.051514,839.540283 580.239746,839.195129 
	C581.092041,837.632263 582.349060,835.422241 583.763306,835.174500 
	C592.913269,833.571228 600.147766,829.288513 605.319702,821.499817 
	C605.832397,820.727722 607.215393,820.018005 608.115723,820.103943 
	C613.215027,820.590942 618.804932,818.176636 623.311523,822.665649 
	C623.932068,823.283630 625.547791,822.967896 626.703186,822.972717 
	C632.699829,822.997559 638.698303,823.070374 644.692932,822.957825 
	C648.701172,822.882629 652.435913,822.928040 656.500427,820.834656 
	C660.110046,818.975586 665.284973,820.253174 669.755249,819.946472 
	C678.242310,819.364197 686.727417,818.719788 695.192322,817.887207 
	C696.474243,817.761108 697.642944,816.484009 699.021545,815.384094 
	C704.293640,814.456909 709.408264,813.884827 715.213928,813.155029 
	C722.568237,811.869019 729.236206,810.767029 735.885193,809.560120 
	C736.392578,809.468018 736.765137,808.632690 737.200317,808.142761 
	C737.200317,808.142761 737.542603,808.086304 738.162720,808.082336 
	C743.982971,807.371399 749.199829,806.759827 754.363464,805.846436 
	C755.073425,805.720886 755.518372,804.096863 756.085938,803.166565 
	C756.085938,803.166565 756.486206,803.019104 757.134399,803.064209 
	C764.007568,802.999023 770.010803,802.070190 775.263428,798.371765 
	C777.261963,797.914001 779.260498,797.456238 781.659790,796.969604 
M673.207458,825.611511 
	C673.787231,825.538025 674.367065,825.464539 674.946838,825.391113 
	C674.808228,825.028198 674.669556,824.665222 674.530945,824.302307 
	C673.976562,824.614319 673.422119,824.926270 673.207458,825.611511 
z"/>
<path fill="#ABCB77" opacity="1.000000" stroke="none" 
	d="
M749.493408,655.263184 
	C749.417969,664.776428 749.083923,674.076843 748.533569,684.186462 
	C748.110107,689.417358 747.903015,693.839111 747.695923,698.260803 
	C747.165344,697.938232 746.634766,697.615723 746.104248,697.293152 
	C744.271851,699.129395 742.402161,700.930542 740.626343,702.819885 
	C739.955750,703.533264 739.674316,704.682251 738.923767,705.240234 
	C727.381714,713.820862 716.680359,723.786926 701.679077,726.449097 
	C695.901184,727.474426 695.042908,727.268005 695.005615,721.306396 
	C694.948303,712.156433 695.118713,703.002014 694.851501,693.859375 
	C694.803467,692.215820 693.111633,690.620239 692.178833,689.002502 
	C692.134583,688.546631 692.090210,688.090820 692.199463,687.193665 
	C692.457703,686.467163 692.390015,686.226196 692.149780,686.029419 
	C692.093262,676.868225 691.814941,667.700439 692.084839,658.548889 
	C692.199097,654.671448 694.692261,652.016113 698.936768,652.001709 
	C713.932861,651.950928 728.931702,652.123535 743.923523,651.865479 
	C746.811523,651.815735 748.017212,653.072510 749.493408,655.263184 
z"/>
<path fill="#78A2DD" opacity="1.000000" stroke="none" 
	d="
M838.102966,807.597412 
	C844.300354,805.069580 850.498962,802.544739 856.694275,800.011841 
	C858.203003,799.395020 859.744751,798.838684 861.196838,798.106750 
	C872.199524,792.560852 883.275879,787.150391 894.136780,781.338074 
	C900.038940,778.179504 905.490356,774.189880 911.286255,770.817810 
	C915.282593,768.492859 919.520935,766.583862 923.893066,764.363892 
	C926.267090,764.238831 928.399231,764.238831 930.723389,764.238831 
	C931.747498,770.135986 929.965942,775.165833 926.891235,780.087402 
	C925.703125,781.989197 925.837952,784.672424 925.109253,786.914917 
	C923.132812,792.997131 921.317383,799.161377 918.829163,805.035095 
	C917.583374,807.975952 915.502136,811.091980 912.921509,812.814758 
	C909.024109,815.416504 905.180115,818.204895 899.702820,818.110962 
	C878.713318,817.750732 857.713684,818.016052 836.718872,817.883362 
	C834.831787,817.871399 832.952271,816.676636 831.069214,816.031189 
	C831.996460,814.240234 832.923706,812.449280 833.971436,810.318359 
	C834.091858,809.978455 834.035706,810.052856 834.403198,810.022461 
	C835.925476,809.255127 839.734314,812.211243 838.102966,807.597412 
z"/>
<path fill="#A1C270" opacity="1.000000" stroke="none" 
	d="
M692.101257,689.464722 
	C693.111633,690.620239 694.803467,692.215820 694.851501,693.859375 
	C695.118713,703.002014 694.948303,712.156433 695.005615,721.306396 
	C695.042908,727.268005 695.901184,727.474426 701.679077,726.449097 
	C716.680359,723.786926 727.381714,713.820862 738.923767,705.240234 
	C739.674316,704.682251 739.955750,703.533264 740.626343,702.819885 
	C742.402161,700.930542 744.271851,699.129395 746.104248,697.293152 
	C746.634766,697.615723 747.165344,697.938232 747.695923,698.260803 
	C747.903015,693.839111 748.110107,689.417358 748.459534,684.654541 
	C748.998047,686.205017 749.719971,688.093689 749.737122,689.988647 
	C749.844971,701.918457 749.662170,713.851990 749.857056,725.779663 
	C749.950989,731.529602 750.658691,737.269592 751.167664,743.425659 
	C751.156677,744.633606 751.066467,745.429993 750.950134,746.624451 
	C747.378540,750.206177 743.163025,751.783447 738.458069,751.811646 
	C725.485413,751.889099 712.512024,751.867859 699.539001,751.840210 
	C694.958984,751.830444 692.010559,748.915833 692.003662,744.307495 
	C691.976379,726.180725 692.011658,708.053833 692.101257,689.464722 
z"/>
<path fill="#F1AD43" opacity="1.000000" stroke="none" 
	d="
M959.804504,642.957642 
	C956.208618,649.712952 950.741272,653.639893 942.964783,653.955627 
	C940.142212,654.070251 937.304688,653.854553 934.485168,654.002136 
	C925.150879,654.491028 919.013855,650.411072 913.461304,642.719666 
	C909.001770,636.542297 906.762756,630.636597 907.375793,623.041748 
	C907.669800,622.714355 907.749573,622.655212 907.749573,622.655212 
	C908.173340,621.982239 908.597107,621.309326 909.374146,620.448608 
	C911.469116,618.037292 914.011230,616.060608 914.789001,613.539551 
	C916.507324,607.969177 922.589722,605.515320 927.253540,609.119568 
	C930.984802,612.003113 944.019348,611.939880 947.455750,608.772888 
	C950.276001,606.173828 953.153870,606.296204 955.218994,608.961121 
	C957.231384,611.557922 958.005859,615.077271 959.798157,617.889221 
	C963.169922,623.179077 962.357910,628.459473 960.810852,634.033508 
	C960.020203,636.881897 960.111694,639.975098 959.804504,642.957642 
z"/>
<path fill="#78A2DD" opacity="1.000000" stroke="none" 
	d="
M890.437927,743.533203 
	C890.065857,733.295776 889.652405,723.059448 889.365112,712.819641 
	C889.320312,711.222351 889.850891,709.609009 890.086304,707.607788 
	C896.691406,703.559143 903.075317,699.298279 910.033752,696.431763 
	C916.354553,693.827942 923.332642,692.852966 929.955017,690.932434 
	C932.760986,690.118652 934.866272,687.747559 938.368774,690.519897 
	C941.100098,692.681946 942.966309,694.567017 942.976746,698.024048 
	C942.990662,702.662659 942.987854,707.301270 942.903687,712.672485 
	C942.486145,713.906372 942.157104,714.407593 941.644897,714.965210 
	C941.461670,715.021545 941.113342,715.181519 940.782349,715.286865 
	C940.281738,716.248779 940.112122,717.105408 939.965820,717.942993 
	C939.989136,717.924011 939.934692,717.898621 939.720093,717.698669 
	C937.641357,717.288757 934.245300,719.319275 931.971497,722.003418 
	C928.441589,724.716248 924.955872,727.489197 921.371277,730.127625 
	C916.248657,733.898010 911.481873,738.923645 905.719604,740.746277 
	C902.561829,741.745178 900.785339,744.687561 896.856445,744.767700 
	C894.249268,744.348083 892.343628,743.940613 890.437927,743.533203 
z"/>
<path fill="#F1AD43" opacity="1.000000" stroke="none" 
	d="
M599.051514,787.882080 
	C603.282898,789.720520 603.416809,793.863770 603.848999,797.426453 
	C604.366394,801.690918 603.904846,806.068115 603.972107,810.394897 
	C604.041077,814.833557 602.259155,818.342407 598.892334,821.117798 
	C594.893921,824.413818 590.920776,827.743164 586.840515,830.934937 
	C586.048767,831.554321 584.818665,831.867004 583.784485,831.881775 
	C576.637573,831.983887 569.141785,833.196533 562.636047,829.731812 
	C558.334778,827.440979 554.319275,823.860474 551.403809,819.943481 
	C548.771301,816.406677 547.497314,811.716309 546.256653,807.354797 
	C545.749268,805.570923 546.905212,803.313843 547.625732,801.411926 
	C548.398132,802.573242 548.849121,803.594666 549.300171,804.616089 
	C549.858337,803.738098 550.540833,802.914246 550.951538,801.971985 
	C552.257935,798.974548 553.463196,795.932983 555.264404,791.554749 
	C561.059937,800.670532 568.839172,800.505737 576.504761,799.910034 
	C585.660583,799.198364 594.335876,797.127869 599.051514,787.882080 
z"/>
<path fill="#78A2DD" opacity="1.000000" stroke="none" 
	d="
M638.571716,697.947510 
	C639.182800,698.489380 639.264221,699.495483 639.672241,699.652466 
	C645.800110,702.009277 646.471191,706.872803 645.825806,712.781067 
	C642.287170,715.382263 638.540527,717.508606 634.998230,719.933350 
	C629.551758,723.661316 624.023743,727.325134 618.941650,731.515015 
	C613.761963,735.785461 608.725159,740.343140 604.266846,745.346313 
	C598.396057,751.934631 593.138611,759.070618 587.651794,765.998352 
	C586.932190,766.906921 586.415833,767.976440 585.172607,768.816284 
	C582.388062,769.428528 580.224060,770.164001 578.086731,770.970032 
	C573.473389,772.709961 571.470032,767.902405 567.931274,766.959351 
	C570.608582,762.733704 573.277771,758.502869 575.968018,754.285400 
	C576.834045,752.927734 577.607361,751.471680 578.675598,750.288574 
	C585.432678,742.805176 592.111938,735.242065 599.117554,727.995972 
	C603.782288,723.171082 608.927734,718.808533 613.906555,714.292664 
	C614.649231,713.618896 615.601013,712.982117 616.554932,712.767517 
	C621.222473,711.717224 624.411377,707.692017 627.805359,705.222046 
	C631.101196,702.823547 635.605103,701.541382 638.571716,697.947510 
z"/>
<path fill="#F1BD4E" opacity="1.000000" stroke="none" 
	d="
M599.021912,787.489624 
	C594.335876,797.127869 585.660583,799.198364 576.504761,799.910034 
	C568.839172,800.505737 561.059937,800.670532 555.264404,791.554749 
	C553.463196,795.932983 552.257935,798.974548 550.951538,801.971985 
	C550.540833,802.914246 549.858337,803.738098 549.300171,804.616089 
	C548.849121,803.594666 548.398132,802.573242 547.961304,801.225952 
	C547.907715,794.568665 551.162292,790.285767 555.118896,785.435791 
	C558.343872,781.482666 563.010559,780.423889 566.384399,776.334412 
	C568.638123,775.904602 570.457397,775.951660 572.276672,775.998718 
	C573.441956,775.987244 574.666443,776.207703 575.763245,775.927856 
	C585.285767,773.498535 591.381042,780.444824 598.578796,784.293274 
	C599.074585,784.558472 598.870789,786.132080 599.021912,787.489624 
z"/>
<path fill="#EE517A" opacity="1.000000" stroke="none" 
	d="
M681.402405,724.405518 
	C681.016602,723.300537 680.630798,722.195496 680.283813,720.316528 
	C679.533875,715.864258 678.859619,712.153564 677.834595,708.542358 
	C677.678650,707.992859 675.897034,707.904907 674.867310,707.603455 
	C672.976746,701.620667 671.086182,695.637939 669.446899,689.101746 
	C670.651672,686.144775 671.605042,683.741211 672.558472,681.337646 
	C676.398315,679.973694 680.247131,678.634338 684.075378,677.238770 
	C687.862366,675.858398 689.901367,677.414062 689.885681,681.835144 
	C689.837280,695.491150 689.751099,709.147095 689.188843,723.263184 
	C686.266174,723.950684 683.834290,724.178101 681.402405,724.405518 
z"/>
<path fill="#F1BD4E" opacity="1.000000" stroke="none" 
	d="
M907.713562,622.682861 
	C907.176025,623.287964 906.224609,623.848938 906.076599,624.573914 
	C905.385254,627.960754 904.915710,631.392822 904.476929,634.123657 
	C897.352600,636.601074 890.683533,636.191711 884.548218,639.478516 
	C880.611755,641.587280 875.352844,641.238037 870.682617,641.963867 
	C865.832458,642.717651 863.822205,639.452087 863.126099,635.696655 
	C862.343689,631.475281 864.262390,629.028564 868.969055,627.823181 
	C876.090027,625.999390 882.889954,622.945801 889.876282,620.561279 
	C892.918701,619.522827 896.047241,618.640564 899.205261,618.062439 
	C902.853516,617.394531 905.835083,618.405273 907.306519,622.581787 
	C907.749573,622.655212 907.669800,622.714355 907.713562,622.682861 
z"/>
<path fill="#F1BD4E" opacity="1.000000" stroke="none" 
	d="
M960.001343,642.631958 
	C960.111694,639.975098 960.020203,636.881897 960.810852,634.033508 
	C962.357910,628.459473 963.169922,623.179077 959.798157,617.889221 
	C958.005859,615.077271 957.231384,611.557922 955.218994,608.961121 
	C953.153870,606.296204 950.276001,606.173828 947.455750,608.772888 
	C944.019348,611.939880 930.984802,612.003113 927.253540,609.119568 
	C922.589722,605.515320 916.507324,607.969177 914.789001,613.539551 
	C914.011230,616.060608 911.469116,618.037292 909.451050,620.139282 
	C908.405884,614.172302 912.439026,610.311584 915.471008,606.381470 
	C918.885071,601.955872 923.384094,598.576172 929.707153,598.832153 
	C930.955872,598.882690 932.248596,596.422241 933.570679,596.369690 
	C936.787781,596.241821 940.088501,594.679626 943.239441,598.035583 
	C945.043152,599.956726 948.743958,600.213257 951.658752,600.950256 
	C957.762756,602.493591 960.392273,607.381897 962.959717,612.348389 
	C966.463318,619.125732 964.348145,626.517517 965.611755,633.724243 
	C965.728271,634.778015 965.429688,635.695312 965.062500,636.975098 
	C964.324829,637.814087 963.550354,638.194336 963.009827,638.787659 
	C962.000854,639.895142 961.127747,641.126465 960.001343,642.631958 
z"/>
<path fill="#ABCB77" opacity="1.000000" stroke="none" 
	d="
M941.113281,715.181519 
	C941.113342,715.181519 941.461670,715.021545 941.873657,715.124146 
	C942.859985,714.528503 943.434326,713.830261 944.008667,713.132080 
	C944.431946,713.091309 944.855286,713.050598 945.897095,712.908325 
	C946.989136,712.197144 947.462708,711.587524 947.936279,710.977905 
	C947.936279,710.977905 947.946655,710.942871 948.176758,710.751709 
	C948.599304,710.032776 948.791748,709.504944 948.984131,708.977051 
	C952.735413,705.318726 956.486755,701.660461 960.596375,697.937866 
	C961.539124,702.895386 959.865906,706.875305 955.689392,709.854431 
	C950.643005,713.454041 945.687866,717.181641 940.347839,720.928101 
	C940.002441,721.002441 940.000000,721.000000 939.997070,720.611877 
	C939.974365,719.448730 939.954529,718.673645 939.934692,717.898621 
	C939.934692,717.898621 939.989136,717.924011 940.189819,717.726685 
	C940.631470,716.746704 940.872375,715.964111 941.113281,715.181519 
z"/>
<path fill="#81B4E4" opacity="1.000000" stroke="none" 
	d="
M572.169189,775.576782 
	C570.457397,775.951660 568.638123,775.904602 566.371460,775.954956 
	C562.277466,774.063660 562.728821,770.872681 567.564331,767.004822 
	C571.470032,767.902405 573.473389,772.709961 578.086731,770.970032 
	C580.224060,770.164001 582.388062,769.428528 584.794189,768.870544 
	C585.556396,773.091858 583.698242,774.304871 579.839294,774.099731 
	C577.272705,773.963318 574.656006,774.770203 572.169189,775.576782 
z"/>
<path fill="#81B4E4" opacity="1.000000" stroke="none" 
	d="
M687.040955,749.581421 
	C688.193237,751.712891 688.928406,754.062927 690.526306,755.191101 
	C692.230103,756.393982 694.722717,756.638428 696.920410,756.936035 
	C698.933655,757.208618 701.012817,756.993896 703.062927,756.993896 
	C703.172485,757.531433 703.282043,758.069031 703.391602,758.606567 
	C702.389099,759.058777 701.408936,759.830078 700.379944,759.901794 
	C697.576660,760.097229 694.751892,760.046875 691.937195,760.000427 
	C688.934143,759.950989 686.165955,759.626648 686.457886,755.428955 
	C686.513245,754.633362 685.175354,753.755310 685.203430,752.940369 
	C685.258606,751.341370 685.822571,749.760010 686.505737,748.082458 
	C686.891479,748.416504 686.947449,748.839417 687.040955,749.581421 
z"/>
<path fill="#A1C270" opacity="1.000000" stroke="none" 
	d="
M681.336365,724.709106 
	C683.834290,724.178101 686.266174,723.950684 689.108154,723.705078 
	C689.614441,724.491516 689.902527,725.329590 689.769165,726.094116 
	C689.432434,728.025024 688.906250,729.922913 688.456055,731.834045 
	C686.658691,730.736938 684.861328,729.639832 682.934021,728.251953 
	C682.292847,726.978394 681.781555,725.995544 681.336365,724.709106 
z"/>
<path fill="#A1C270" opacity="1.000000" stroke="none" 
	d="
M672.239502,681.263062 
	C671.605042,683.741211 670.651672,686.144775 669.417053,688.706543 
	C668.845520,687.423279 668.555115,685.981689 668.237732,684.130615 
	C669.447327,682.876892 670.683960,682.032654 672.239502,681.263062 
z"/>
<path fill="#A1C270" opacity="1.000000" stroke="none" 
	d="
M810.341492,817.905334 
	C811.106934,816.903625 812.221191,815.967102 813.706604,815.036621 
	C812.948669,816.018616 811.819519,816.994568 810.341492,817.905334 
z"/>
<path fill="#A1C270" opacity="1.000000" stroke="none" 
	d="
M943.778931,713.037903 
	C943.434326,713.830261 942.859985,714.528503 942.056885,715.067749 
	C942.157104,714.407593 942.486145,713.906372 942.937866,713.130737 
	C943.060486,712.856384 943.549194,712.943787 943.778931,713.037903 
z"/>
<path fill="#78A2DD" opacity="1.000000" stroke="none" 
	d="
M663.087891,761.349121 
	C663.552063,761.891724 663.937927,762.775269 664.148315,763.860413 
	C663.651794,763.271362 663.330688,762.480713 663.087891,761.349121 
z"/>
<path fill="#A1C270" opacity="1.000000" stroke="none" 
	d="
M947.596436,710.995544 
	C947.462708,711.587524 946.989136,712.197144 946.214600,712.874512 
	C946.361328,712.299255 946.808960,711.656250 947.596436,710.995544 
z"/>
<path fill="#A1C270" opacity="1.000000" stroke="none" 
	d="
M948.699890,709.088013 
	C948.791748,709.504944 948.599304,710.032776 948.194763,710.748779 
	C948.127014,710.357605 948.271301,709.778198 948.699890,709.088013 
z"/>
<path fill="#A1C270" opacity="1.000000" stroke="none" 
	d="
M692.093140,686.262451 
	C692.390015,686.226196 692.457703,686.467163 692.261597,686.854248 
	C692.170227,686.956116 692.036499,686.495544 692.093140,686.262451 
z"/>
<path fill="#000000" opacity="1.000000" stroke="none" 
	d="
M736.742004,808.035339 
	C736.765137,808.632690 736.392578,809.468018 735.885193,809.560120 
	C729.236206,810.767029 722.568237,811.869019 715.447388,812.964172 
	C715.880676,811.948792 716.665222,810.252563 717.680054,810.101318 
	C723.852173,809.181458 730.076660,808.613403 736.742004,808.035339 
z"/>
<path fill="#000000" opacity="1.000000" stroke="none" 
	d="
M755.654297,803.078125 
	C755.518372,804.096863 755.073425,805.720886 754.363464,805.846436 
	C749.199829,806.759827 743.982971,807.371399 738.335266,808.063904 
	C739.994568,807.012878 742.005188,805.614929 744.230286,805.022034 
	C747.820068,804.065613 751.551147,803.639709 755.654297,803.078125 
z"/>
<path fill="#000000" opacity="1.000000" stroke="none" 
	d="
M774.820557,798.218567 
	C770.010803,802.070190 764.007568,802.999023 757.341309,803.012695 
	C757.176819,802.516113 757.389587,801.838318 757.739990,801.757568 
	C763.275513,800.481567 768.828613,799.282288 774.820557,798.218567 
z"/>
<path fill="#000000" opacity="1.000000" stroke="none" 
	d="
M822.522949,781.111633 
	C820.273621,785.275024 816.080627,785.786987 811.355469,785.965088 
	C813.465698,781.499634 818.398804,782.646118 822.522949,781.111633 
z"/>
<path fill="#000000" opacity="1.000000" stroke="none" 
	d="
M725.446655,865.781372 
	C722.155762,864.535767 718.572021,863.753845 716.532410,861.545593 
	C714.827942,859.700256 715.770081,856.974426 718.697449,854.968079 
	C724.564087,850.947144 726.203186,850.924622 730.032349,856.886047 
	C733.373657,862.088074 727.940002,863.057678 725.446655,865.781372 
z"/>
<path fill="#000000" opacity="1.000000" stroke="none" 
	d="
M852.970581,859.917175 
	C851.913208,855.423340 854.261902,853.114136 857.530884,852.142212 
	C860.319092,851.313293 863.508972,851.730164 864.885864,855.026611 
	C866.299744,858.411804 867.313171,862.021606 863.169739,864.394836 
	C861.819214,865.168274 858.886902,865.938843 858.817810,865.779968 
	C857.638733,863.069031 851.601379,865.557739 852.970581,859.917175 
z"/>
<path fill="#000000" opacity="1.000000" stroke="none" 
	d="
M698.543335,846.867065 
	C698.928162,845.843872 699.607483,844.261902 700.494568,844.135315 
	C706.190979,843.322388 711.932861,842.828430 717.858521,842.561890 
	C717.114807,843.604797 716.244751,844.790894 715.218140,844.946838 
	C709.811829,845.768188 704.365967,846.329590 698.543335,846.867065 
z"/>
<path fill="#000000" opacity="1.000000" stroke="none" 
	d="
M786.263062,827.217285 
	C785.993286,826.559143 786.087891,825.188232 786.355774,825.153503 
	C787.962463,824.945068 789.609009,825.043884 791.676270,825.025940 
	C790.309448,825.715393 788.508484,826.418640 786.263062,827.217285 
z"/>
<path fill="#000000" opacity="1.000000" stroke="none" 
	d="
M890.236572,743.933350 
	C892.343628,743.940613 894.249268,744.348083 896.540283,744.851807 
	C894.129272,748.762329 890.937378,751.955383 885.350708,752.055420 
	C886.238281,749.225952 891.300842,748.870239 890.236572,743.933350 
z"/>
<path fill="#A1C270" opacity="1.000000" stroke="none" 
	d="
M939.720093,717.698669 
	C939.954529,718.673645 939.974365,719.448730 939.995850,720.610596 
	C937.514221,721.474487 935.030945,721.951416 932.259521,722.215881 
	C934.245300,719.319275 937.641357,717.288757 939.720093,717.698669 
z"/>
<path fill="#000000" opacity="1.000000" stroke="none" 
	d="
M837.677551,807.754272 
	C839.734314,812.211243 835.925476,809.255127 834.356934,810.016663 
	C835.046143,809.331299 836.149109,808.621277 837.677551,807.754272 
z"/>
<path fill="#000000" opacity="1.000000" stroke="none" 
	d="
M792.010620,642.866577 
	C790.948486,643.899719 789.896973,644.844604 788.785217,644.921875 
	C785.668091,645.138733 782.526062,644.997559 779.257324,644.997559 
	C779.448120,640.689758 779.628113,636.625793 779.821716,632.253906 
	C783.225281,632.253906 787.290588,632.253906 791.993713,632.253906 
	C791.993713,635.595337 791.993713,638.988831 792.010620,642.866577 
z"/>
<path fill="#000000" opacity="1.000000" stroke="none" 
	d="
M780.281067,680.977295 
	C779.302917,677.027222 778.793640,673.138245 778.271545,669.151306 
	C782.315674,669.151306 786.921509,669.151306 791.742554,669.151306 
	C791.983032,672.928711 792.217102,676.604858 792.499390,681.038330 
	C788.827454,681.038330 784.788696,681.038330 780.281067,680.977295 
z"/>
<path fill="#F1BD4E" opacity="1.000000" stroke="none" 
	d="
M830.896729,744.581055 
	C830.693298,744.320557 830.544983,743.776367 830.622375,743.192688 
	C830.882690,743.534546 830.917297,743.916016 830.896729,744.581055 
z"/>
<path fill="#000000" opacity="1.000000" stroke="none" 
	d="
M674.901550,708.045776 
	C675.897034,707.904907 677.678650,707.992859 677.834595,708.542358 
	C678.859619,712.153564 679.533875,715.864258 680.183594,719.979858 
	C679.089539,719.869629 677.513672,719.506531 677.286804,718.742798 
	C676.290344,715.387756 675.683777,711.916931 674.901550,708.045776 
z"/>
<path fill="#F1BD4E" opacity="1.000000" stroke="none" 
	d="
M774.000366,748.997803 
	C767.182861,748.997986 760.865234,748.997986 754.547546,748.997986 
	C757.569641,745.577271 822.552002,745.191223 828.793823,747.802246 
	C823.474976,749.727966 819.126465,748.822815 814.970093,748.972900 
	C810.479187,749.135132 805.977844,749.008484 801.481018,749.007263 
	C796.984253,749.005981 792.487427,749.004028 787.990662,749.002441 
	C783.493835,749.000793 778.997070,748.999146 774.000366,748.997803 
z"/>
<path fill="#000000" opacity="1.000000" stroke="none" 
	d="
M787.822083,718.024414 
	C785.065063,718.024414 782.772339,718.024414 780.521545,718.024414 
	C779.936584,713.637939 779.396667,709.589050 778.816650,705.239441 
	C782.900696,705.239441 787.566467,705.239441 792.671448,705.239441 
	C792.441528,709.602051 792.231140,713.593262 792.010498,717.778381 
	C790.545166,717.875244 789.415771,717.949829 787.822083,718.024414 
z"/>
<path fill="#ABCB77" opacity="1.000000" stroke="none" 
	d="
M673.037598,825.424927 
	C673.422119,824.926270 673.976562,824.614319 674.530945,824.302307 
	C674.669556,824.665222 674.808228,825.028198 674.946838,825.391113 
	C674.367065,825.464539 673.787231,825.538025 673.037598,825.424927 
z"/>
<path fill="#A1C270" opacity="1.000000" stroke="none" 
	d="
M940.782349,715.286865 
	C940.872375,715.964111 940.631470,716.746704 940.166504,717.745728 
	C940.112122,717.105408 940.281738,716.248779 940.782349,715.286865 
z"/>
</svg>